/* XPM */
static char *logo[] = {
/* columns rows colors chars-per-pixel */
"104 45 10 1 ",
"  c black",
". c #242400",
"X c #242448",
"o c #484848",
"O c #6D6D48",
"+ c gray57",
"@ c #B6B691",
"# c #B6B6DA",
"$ c #DADADA",
"% c #FFFFDA",
/* pixels */
"             o%%%%%%%%%o               +%%%%%%%%%%%%%%$$$+o.                      XO@$$%%$$$+o.         ",
"             +%%%%%%%%%+               +%%%%%%%%%%%%%%%%%%%$O                   O@$%%%%%%%%%%%$+X       ",
"            .$%%%%%%%%%$               +%%%%%%%%%%%%%%%%%%%%%@X               o@%%%%%%%%%%%%%%%%$O      ",
"            o%%%%%%%%%%$o              +%%%%%%%%%%%%%%%%%%%%%%$o             O$%%%%%%%%%%%%%%%%%%%+.    ",
"            O%%%%%%%%%%%O              +%%%%%%%%%%%%%%%%%%%%%%%$X           O%%%%%%%%%%%%%%%%%%%%%%@.   ",
"            #%%%%%%%%%%%#              +%%%%%%%%%%%%%%%%%%%%%%%%+          O%%%%%%%%%%%%%%%%%%%%%%%%@.  ",
"           X$%%%%%%%%%%%$o             +%%%%%%%%%%%%%%%%%%%%%%%%%o        o$%%%%%%%%%%%%%%%%%%%%%%%%%O  ",
"           O%%%%%%%%%%%%%O             +%%%%%%%%%%%%%%%%%%%%%%%%%+       .$%%%%%%%%%%%%%%%%%%%%%%%%%%$o ",
"           @%%%%%%%%%%%%%#             +%%%%%%%%%%%%%%%%%%%%%%%%%$.      +%%%%%%%%%%%%%%%%%%%%%%%%%%%%+ ",
"          X$%%%%%%%%%%%%%$X            +%%%%%%%%%%%%%%%%%%%%%%%%%%o     .$%%%%%%%%%%%%%%%%%%%%%%%%%%%%$o",
"          O%%%%%%%%%%%%%%%O            +%%%%%%%%%%%%%%%%%%%%%%%%%%O     O%%%%%%%%%%%%$Oooo+%%%%%%%%%%%%+",
"          +%%%%%%%%%%%%%%%@            +%%%%%%%%%%%%%%%%%%%%%%%%%%+     @%%%%%%%%%%$O.     o$%%%%%%%%%%@",
"         .$%%%%%%%%%%%%%%%$X           +%%%%%%%%%%%%%%%%%%%%%%%%%%+    X$%%%%%%%%%$O        o$%%%%%%%$o ",
"         o%%%%%%%%%%%%%%%%%O           +%%%%%%%%%%%%%%%%%%%%%%%%%%@    o%%%%%%%%%%+          o%%%%%$O.  ",
"         +%%%%%%%%%%%%%%%%%@           +%%%%%%%%%%%%%%%%%%%%%%%%%%@    +%%%%%%%%%$X           +%%$+X    ",
"        .$%%%%%%%%%%%%%%%%%$X          +%%%%%%%%%%%%%%%%%%%%%%%%%%+    @%%%%%%%%%@            o$+X      ",
"        o%%%%%%%%%%%%%%%%%%%O          +%%%%%%%%%%%%%%%%%%%%%%%%%%+    #%%%%%%%%%+             X        ",
"        +%%%%%%%%%%%%%%%%%%%@          +%%%%%%%%%%%%%%%%%%%%%%%%%%O    $%%%%%%%%%O                      ",
"        #%%%%%%%%%%%%%%%%%%%$X         +%%%%%%%%%%%%%%%%%%%%%%%%%%o   .$%%%%%%%%%O                      ",
"       X$%%%%%%%%%%%%%%%%%%%%O         +%%%%%%%%%%%%%%%%%%%%%%%%%$    .$%%%%%%%%%O                      ",
"       O%%%%%%%%%%%%%%%%%%%%%+         +%%%%%%%%%%%%%%%%%%%%%%%%%O    .$%%%%%%%%%O                      ",
"       @%%%%%%%%%%%%%%%%%%%%%$.        +%%%%%%%%%%%%%%%%%%%%%%%%$.    .$%%%%%%%%%O                      ",
"      X$%%%%%%%%%%%%%%%%%%%%%%o        +%%%%%%%%%%%%%%%%%%%%%%%%o     .$%%%%%%%%%O                      ",
"      O%%%%%%%%%%%%%%%%%%%%%%%+        +%%%%%%%%%%%%%%%%%%%%%%%+      .$%%%%%%%%%O                      ",
"      @%%%%%%%%%%%%%%%%%%%%%%%$.       +%%%%%%%%%%%%%%%%%%%%%%+.      .$%%%%%%%%%O                      ",
"     .$%%%%%%%%%%%+$%%%%%%%%%%%o       +%%%%%%%%%%%%%%%%%%%%%+.       .$%%%%%%%%%O                      ",
"     o%%%%%%%%%%%%o+%%%%%%%%%%%+       +%%%%%%%%%%%%%%%%%%$@o         .$%%%%%%%%%O                      ",
"     +%%%%%%%%%%%$.o%%%%%%%%%%%$.      +%%%%%%%%%%%%%%%%%%#           .$%%%%%%%%%O                      ",
"    .$%%%%%%%%%%%+ .$%%%%%%%%%%%o      +%%%%%%%%%%%%%%%%%%%o           #%%%%%%%%%+                      ",
"    o%%%%%%%%%%%%o  +%%%%%%%%%%%+      +%%%%%%%%%%%%%%%%%%%@           +%%%%%%%%%@                      ",
"    +%%%%%%%%%%%$.  o%%%%%%%%%%%$.     +%%%%%%%%%$%%%%%%%%%%o          +%%%%%%%%%$X           X+o       ",
"    $%%%%%%%%%%%+   .$%%%%%%%%%%%o     +%%%%%%%%%@@%%%%%%%%%@          o%%%%%%%%%%+           +%%+o     ",
"   o$%%%%%%%%%%%o    +%%%%%%%%%%%+     +%%%%%%%%%+o%%%%%%%%%%o         X$%%%%%%%%%$o         O%%%%$+X   ",
"   O%%%%%%%%%%%$.    o%%%%%%%%%%%$.    +%%%%%%%%%+.$%%%%%%%%%@         .$%%%%%%%%%%$O       O$%%%%%%$O. ",
"   #%%%%%%%%%%%+     .$%%%%%%%%%%%o    +%%%%%%%%%+ O%%%%%%%%%%o         +%%%%%%%%%%%%@OoXoo@%%%%%%%%%%$O",
"  X$%%%%%%%%%%%o      +%%%%%%%%%%%+    +%%%%%%%%%+ X$%%%%%%%%%#         o%%%%%%%%%%%%%%$$$%%%%%%%%%%%%%@",
"  O%%%%%%%%%%%$.      o%%%%%%%%%%%$    +%%%%%%%%%+  +%%%%%%%%%%o         #%%%%%%%%%%%%%%%%%%%%%%%%%%%%$o",
"  @%%%%%%%%%%%+       .$%%%%%%%%%%$o   +%%%%%%%%%+  o%%%%%%%%%%#.        o%%%%%%%%%%%%%%%%%%%%%%%%%%%%+ ",
" .$%%%%%%%%%%%o        +%%%%%%%%%%%O   +%%%%%%%%%+   #%%%%%%%%%%O         +%%%%%%%%%%%%%%%%%%%%%%%%%%#. ",
" o%%%%%%%%%%%$.        o%%%%%%%%%%%#   +%%%%%%%%%+   O%%%%%%%%%%#.        X$%%%%%%%%%%%%%%%%%%%%%%%%$o  ",
" +%%%%%%%%%%%+         .$%%%%%%%%%%$o  +%%%%%%%%%+   .$%%%%%%%%%%O         o$%%%%%%%%%%%%%%%%%%%%%%$o   ",
".$%%%%%%%%%%%o          +%%%%%%%%%%%O  +%%%%%%%%%+    +%%%%%%%%%%$.         o$%%%%%%%%%%%%%%%%%%%%#o    ",
"o%%%%%%%%%%%$.          o%%%%%%%%%%%#  +%%%%%%%%%+    o$%%%%%%%%%%O          X+$%%%%%%%%%%%%%%%%$+.     ",
"+%%%%%%%%%%%+           .$%%%%%%%%%%$X +%%%%%%%%%+     @%%%%%%%%%%$.           o+$%%%%%%%%%%%%$+X       ",
"$%%%%%%%%%%$o            +%%%%%%%%%%%O +%%%%%%%%%+     o%%%%%%%%%%%o             XO+$$$%%$$$+o.         "
};
